<svg xmlns="http://www.w3.org/2000/svg" viewBox="0 0 1363 74.1" class="w-100 overflow-visible" data-tor-group="path => mouseX:@parallax(/+3/);">
  <path d="M0 73.9s85-29 117-29 86 25 111 27 323 5 354-13 58.6-58 106-58c39.5 0 74 19.9 94 36 26.5 21.4 90 30 122 26s338.5 11 338.5 11H0z" fill="#1D2043"></path>
  <path d="M208.1 74.1s81.9-27.9 127.1-30 84.1 11.3 123.1 15.4 76.9-29.8 112.9-33.9 92.3 9.2 134.4 24.6c42.1 15.4 96.4 34.9 142.6 13.3C894.3 42.1 916.8 0 1003 0s105.7 10.3 137.5 27.7 60.5 27.7 88.2 16.4c27.7-11.3 35.9-14.4 60.5 0s30.8 29.8 30.8 29.8l-1111.9.2z" fill="#ccc"></path>
  <path d="M283 73.9s77-28 121-30 82 11 120 15 75-29 110-33 90 9 131 24 94 34 139 13 67-62 151-62 103 10 134 27 59 27 86 16 35-14 59 0 29 30 29 30H283z" fill="#8B80F9"></path>
</svg>
