<svg width="150" height="250" viewBox="0 0 150 250" fill="none" xmlns="http://www.w3.org/2000/svg">
<path d="M88.8903 18.5156H61.1172C58.4063 18.5156 56.207 20.7109 56.207 23.4258C56.207 26.1367 58.4062 28.3438 61.1172 28.3438H88.8983C91.621 28.3438 93.8084 26.1368 93.8084 23.4258C93.8045 20.711 91.617 18.5156 88.8904 18.5156H88.8903Z" fill="white"/>
<path d="M134.59 0.289062H15.4101C7.28506 0.289062 0.664062 6.91016 0.664062 15.0391V234.959C0.664062 243.092 7.28516 249.705 15.4101 249.705H134.59C142.727 249.705 149.348 243.092 149.348 234.959L149.344 15.0391C149.34 6.90626 142.727 0.289062 134.59 0.289062H134.59ZM139.512 234.969C139.512 237.68 137.301 239.887 134.59 239.887L15.4101 239.883C12.6992 239.883 10.4998 237.676 10.4998 234.965L10.4959 15.0352C10.4959 12.3204 12.6952 10.1172 15.4062 10.1172H134.586C137.297 10.1172 139.508 12.3164 139.508 15.0352L139.512 234.969Z" fill="white"/>
<path d="M83.5997 217.766C83.5997 222.516 79.7481 226.367 74.9981 226.367C70.2442 226.367 66.3965 222.516 66.3965 217.766C66.3965 213.012 70.2442 209.164 74.9981 209.164C79.7481 209.164 83.5997 213.012 83.5997 217.766Z" fill="white"/>
</svg>
