<svg width="502" height="502" viewBox="0 0 502 502" fill="none" xmlns="http://www.w3.org/2000/svg">
<path d="M501.704 250.763C501.704 250.552 501.598 250.376 501.583 250.169C501.438 183.771 474.962 120.139 427.962 73.2393C380.962 26.3413 317.272 0.00133994 250.882 0.00133994C204.405 -0.151 158.812 12.6893 119.242 37.0753C79.6758 61.4623 47.7148 96.4193 26.9648 138.005C26.7305 138.427 26.5312 138.865 26.3711 139.318C9.13709 173.732 0.152086 211.681 0.121086 250.168C0.121086 250.379 0 250.555 0 250.762C0 250.973 0.105466 251.148 0.121086 251.355C0.152336 289.828 9.14059 327.769 26.3711 362.165C26.543 362.658 26.7578 363.13 27.0156 363.583C55.0116 419.208 102.711 462.419 160.816 484.813C218.925 507.2 283.286 507.157 341.366 484.692C399.444 462.227 447.086 418.95 475.006 363.282C492.561 328.559 501.69 290.192 501.658 251.282C501.591 251.146 501.693 250.97 501.693 250.759L501.704 250.763ZM461.349 350.654H367.06C377.349 321.33 383.005 290.58 383.826 259.513H483.576C482.51 291.099 474.943 322.122 461.353 350.654H461.349ZM447.349 376.185C445.79 378.634 444.286 381.154 442.658 383.537C441.029 385.916 439.368 387.998 437.724 390.22C436.079 392.443 434.677 394.474 433.068 396.501C431.458 398.533 429.462 400.755 427.642 402.888C425.822 405.025 424.388 406.81 422.673 408.681C420.958 410.552 418.822 412.634 416.88 414.615C414.939 416.591 413.38 418.306 411.525 420.056C409.669 421.806 407.466 423.697 405.415 425.498C403.368 427.298 401.634 428.998 399.677 430.591C397.716 432.185 395.388 433.935 393.22 435.615C391.048 437.295 389.232 438.783 387.165 440.271C385.099 441.759 382.685 443.298 380.446 444.802C378.208 446.306 376.212 447.708 374.04 449.072C371.868 450.435 369.384 451.767 367.04 453.115C364.696 454.462 362.614 455.74 360.321 456.947C358.028 458.154 355.525 459.31 353.111 460.447C350.696 461.583 348.474 462.775 346.111 463.841C343.747 464.908 341.247 465.837 338.814 466.833C336.38 467.829 333.896 468.88 331.392 469.81C328.888 470.736 326.439 471.454 323.954 472.279C321.47 473.103 318.845 474.029 316.255 474.763C313.665 475.498 311.161 476.091 308.591 476.74C306.017 477.388 303.341 478.103 300.732 478.681C298.122 479.259 295.482 479.662 292.942 480.134C290.403 480.607 287.571 481.15 284.841 481.552C282.583 481.884 280.29 482.076 278.032 482.341H278.04C314.149 451.333 342.407 412.216 360.497 368.191H452.302C451.986 368.75 451.708 369.328 451.376 369.941C450.134 372.023 448.716 374.09 447.368 376.207L447.349 376.185ZM208.709 480.095C206.135 479.622 203.459 479.22 200.99 478.661C198.521 478.103 195.74 477.365 193.045 476.701C190.35 476.037 187.951 475.474 185.467 474.759C182.982 474.04 180.338 473.115 177.768 472.275C175.193 471.435 172.779 470.701 170.314 469.806C167.846 468.915 165.311 467.81 162.826 466.814C160.342 465.818 157.998 464.923 155.635 463.872C153.271 462.822 150.771 461.529 148.338 460.372C145.904 459.216 143.682 458.169 141.338 456.978C138.994 455.787 136.666 454.318 134.338 452.99C132.01 451.661 129.822 450.47 127.635 449.122C125.447 447.775 123.139 446.13 120.881 444.626C118.623 443.122 116.592 441.825 114.51 440.337C112.428 438.849 110.15 436.993 107.982 435.314C105.811 433.634 103.959 432.286 102.014 430.658C100.072 429.029 97.8652 427.001 95.7831 425.146C93.701 423.29 91.9667 421.857 90.1464 420.107C88.3261 418.357 86.1737 416.083 84.1972 414.052C82.2206 412.021 80.6972 410.552 78.9472 408.802C76.9863 406.65 75.1503 404.376 73.2597 402.154C71.7011 400.298 70.0761 398.533 68.5527 396.622C66.6816 394.259 64.9472 391.775 63.1465 389.341C61.7481 387.435 60.2949 385.595 58.9473 383.654C56.9512 380.748 55.0957 377.72 53.2246 374.712C52.2285 373.119 51.1582 371.58 50.1973 369.951C49.8653 369.392 49.584 368.814 49.2715 368.201H141.21C159.308 412.228 187.573 451.346 223.69 482.351C221.416 482.089 219.139 481.898 216.881 481.562C214.135 481.128 211.42 480.585 208.709 480.093L208.709 480.095ZM40.3889 150.865H134.698C124.425 180.193 118.78 210.943 117.968 242.006H18.2179C19.2687 210.424 26.8156 179.401 40.3899 150.865H40.3889ZM53.2169 127.029C55.1231 123.967 56.9981 120.888 59.0255 117.947C60.338 116.056 61.756 114.271 63.1036 112.416C64.8536 109.931 66.7091 107.392 68.6153 104.994C70.1387 103.088 71.7637 101.303 73.3419 99.4471C75.2325 97.2244 77.0685 94.951 79.0294 92.8143C80.6935 91.0643 82.5294 89.3143 84.1583 87.5643C86.1544 85.5174 88.1114 83.4159 90.1778 81.4393C91.9278 79.6893 93.8887 78.1307 95.7442 76.4705C97.5997 74.8064 99.8731 72.6893 102.025 70.9041C104.178 69.1189 106.014 67.8064 108.01 66.2479C110.006 64.6893 112.299 62.7479 114.522 61.2245C116.744 59.7011 118.775 58.3534 120.908 56.9198C123.045 55.4862 125.354 53.8573 127.647 52.4393C129.94 51.0213 132.162 49.8143 134.42 48.5174C136.678 47.2205 138.986 45.8221 141.334 44.5799C143.678 43.3377 146.041 42.2518 148.334 41.0799C150.627 39.908 153.061 38.701 155.49 37.5799C157.924 36.4588 160.287 35.6033 162.701 34.6385C165.115 33.6775 167.67 32.5565 170.209 31.6268C172.748 30.701 175.092 29.9979 177.525 29.1932C179.959 28.3885 182.775 27.4432 185.35 26.6737C187.924 25.9042 190.389 25.3612 192.908 24.7323C195.428 24.1034 198.158 23.3495 200.834 22.7714C203.51 22.1933 206.084 21.7909 208.623 21.3378C211.162 20.8847 213.994 20.3222 216.725 19.9198C218.982 19.5878 221.256 19.3964 223.533 19.1307L223.525 19.1425C187.447 50.1814 159.232 89.3265 141.189 133.362H49.4004C49.7325 132.804 50.0137 132.206 50.3262 131.612C51.2559 130.003 52.3067 128.585 53.2168 127.027L53.2169 127.029ZM292.967 21.4191C295.541 21.8917 298.217 22.2941 300.686 22.8527C303.155 23.4113 305.936 24.1496 308.612 24.8136C311.287 25.4776 313.705 26.0402 316.225 26.7745C318.744 27.5089 321.334 28.4034 323.873 29.2433C326.412 30.0831 328.897 30.8175 331.362 31.7277C333.83 32.6378 336.315 33.6886 338.764 34.6847C341.213 35.6808 343.647 36.5909 346.045 37.6613C348.443 38.7277 350.858 39.9699 353.256 41.1613C355.654 42.3527 357.983 43.384 360.256 44.6613C362.529 45.9386 364.822 47.2511 367.1 48.5636C369.373 49.8761 371.721 51.1378 373.979 52.5363C376.236 53.9347 378.248 55.3722 380.385 56.8058C382.522 58.2394 384.916 59.7472 387.104 61.337C389.291 62.9308 391.147 64.4347 393.158 65.9932C395.17 67.5518 397.518 69.2666 399.615 71.0166C401.717 72.7666 403.397 74.376 405.287 76.04C407.178 77.7041 409.471 79.6455 411.463 81.5517C413.459 83.4579 414.963 85.0517 416.713 86.9072C418.463 88.7627 420.701 90.8447 422.592 92.9267C424.483 95.0087 425.951 96.8642 427.651 98.8251C429.35 100.786 431.272 102.938 432.901 105.091C434.529 107.243 436.119 109.43 437.729 111.618C439.338 113.805 440.967 115.852 442.49 118.059C444.014 120.262 445.674 123.028 447.268 125.532C448.596 127.614 449.979 129.645 451.24 131.778C451.557 132.321 451.834 132.899 452.151 133.528L360.552 133.52C342.447 89.5004 314.186 50.3834 278.076 19.3704C280.349 19.6321 282.626 19.8235 284.884 20.1594C287.716 20.386 290.325 20.929 292.966 21.4211L292.967 21.4191ZM242.041 133.419H160.143C178.526 91.8061 206.608 55.2001 242.041 26.6691V133.419ZM259.541 26.6691C294.971 55.2041 323.053 91.8101 341.443 133.419H259.545L259.541 26.6691ZM242.041 150.919V242.005H135.471C136.307 210.853 142.303 180.056 153.217 150.864L242.041 150.919ZM242.041 259.559V350.7L153.178 350.696C142.268 321.489 136.283 290.673 135.467 259.505L242.041 259.559ZM242.041 368.199V474.949V474.945C206.607 446.414 178.525 409.808 160.143 368.195L242.041 368.199ZM259.541 368.199H341.439L341.443 368.195C323.06 409.812 294.974 446.414 259.541 474.945L259.541 368.199ZM259.541 350.699V259.504H366.291C365.459 290.656 359.459 321.457 348.529 350.645L259.541 350.699ZM259.541 242.059V150.864H348.494C359.443 180.048 365.471 210.848 366.326 242.005L259.541 242.059ZM117.791 259.559V259.555C118.607 290.621 124.26 321.371 134.541 350.696H40.3889C26.7759 322.153 19.1979 291.11 18.1309 259.505L117.791 259.559ZM383.671 242.059V242.055C382.855 210.993 377.202 180.243 366.921 150.918H461.214C474.855 179.418 482.48 210.426 483.612 242.004L383.671 242.059Z" fill="white"/>
</svg>
