<svg width="510" height="486" viewBox="0 0 510 486" fill="none" xmlns="http://www.w3.org/2000/svg">
<path d="M478.609 86.3828H469.859V67.3518C469.848 62.4924 467.914 57.8362 464.477 54.4028C461.043 50.9692 456.387 49.0317 451.528 49.02H354.93C355.738 48.0552 356.226 46.8638 356.328 45.6098L360.004 7.45783C360.187 5.53593 359.519 3.62973 358.168 2.24693C356.82 0.864127 354.93 0.145329 353.004 0.282129L314.856 4.08683V4.09073C312.242 4.29776 310 6.02823 309.137 8.50093C308.278 10.9736 308.957 13.7236 310.871 15.5087L323.254 27.8917L301.684 49.2437L58.4843 49.2398C53.6249 49.2515 48.9687 51.189 45.5353 54.6226C42.0978 58.0562 40.1642 62.7124 40.1525 67.5716V86.3836H31.4025C23.1798 86.3953 15.2975 89.6688 9.48051 95.4813C3.66801 101.298 0.394613 109.18 0.382812 117.403V391.283C0.382812 399.514 3.64841 407.408 9.46481 413.232C15.2812 419.057 23.1718 422.334 31.4028 422.346H190.873V472.658H155.478C151.853 472.658 148.915 475.595 148.915 479.22C148.915 482.845 151.853 485.783 155.478 485.783H355.068C358.693 485.783 361.63 482.845 361.63 479.22C361.63 475.595 358.693 472.658 355.068 472.658H319.677V422.388H478.627H478.623C486.853 422.376 494.744 419.099 500.561 413.274C506.377 407.45 509.643 399.555 509.643 391.325V117.405C509.631 109.183 506.358 101.3 500.545 95.4833C494.729 89.6708 486.846 86.3974 478.623 86.3856L478.609 86.3828ZM53.2693 112.281H237.499L221.007 128.82H181.632C180.023 128.808 178.468 129.386 177.257 130.437L114.999 185.562C113.699 186.722 112.913 188.351 112.816 190.093C112.718 191.832 113.316 193.539 114.476 194.839C116.89 197.546 121.042 197.781 123.749 195.363L184.081 141.945H223.675C225.414 141.945 227.082 141.249 228.312 140.019L256.355 112.281H456.735V307.761C456.758 309.152 456.219 310.495 455.239 311.484C454.258 312.472 452.923 313.023 451.528 313.011H58.478C57.0991 313.023 55.7749 312.484 54.7983 311.515C53.8217 310.546 53.271 309.226 53.271 307.847L53.2693 112.281ZM456.729 67.3508V99.1558H269.609L307.058 62.1438H451.438C452.841 62.097 454.204 62.6282 455.204 63.6126C456.204 64.597 456.759 65.9485 456.731 67.3509L456.729 67.3508ZM346.299 14.1518L344.682 30.5148L329.94 15.7728L346.299 14.1518ZM332.518 36.9448L344.635 49.0188H320.315L332.518 36.9448ZM53.2583 67.5698H53.2622C53.2388 66.1831 53.7778 64.8432 54.7583 63.8628C55.7427 62.8824 57.0786 62.3394 58.4692 62.3628H288.379L250.973 99.3748H53.2632L53.2583 67.5698ZM31.3833 99.7258H40.1333V105.894L40.1372 307.754C40.1255 312.625 42.0513 317.297 45.4888 320.746C48.9302 324.191 53.5982 326.129 58.4688 326.129H451.519H451.515C456.37 326.129 461.027 324.203 464.464 320.773C467.901 317.347 469.835 312.695 469.847 307.839V99.4991H478.597C483.343 99.4991 487.894 101.386 491.249 104.741C494.604 108.097 496.491 112.648 496.491 117.393V343.623H13.4909V117.393C13.4909 112.647 15.3776 108.096 18.7331 104.741C22.0886 101.386 26.6393 99.4991 31.3851 99.4991L31.3833 99.7258ZM306.523 472.866H203.973V422.378H306.523V472.866ZM478.593 409.253H31.3833C26.6333 409.241 22.0825 407.347 18.7273 403.983C15.3721 400.62 13.489 396.065 13.489 391.315V356.753H496.489V391.23C496.512 395.992 494.637 400.57 491.282 403.953C487.927 407.336 483.36 409.242 478.594 409.254L478.593 409.253Z" fill="white"/>
<path d="M275.959 377.312H234.045C230.42 377.312 227.482 380.25 227.482 383.875C227.482 387.5 230.42 390.438 234.045 390.438H275.959C279.584 390.438 282.521 387.5 282.521 383.875C282.521 380.25 279.584 377.312 275.959 377.312Z" fill="white"/>
<path d="M78.3398 80.6406C78.3398 84.2656 75.4023 87.2031 71.7773 87.2031C68.1562 87.2031 65.2148 84.2656 65.2148 80.6406C65.2148 77.0156 68.1562 74.0781 71.7773 74.0781C75.4023 74.0781 78.3398 77.0156 78.3398 80.6406Z" fill="white"/>
<path d="M128.43 80.6406C128.43 84.2656 125.492 87.2031 121.867 87.2031C118.246 87.2031 115.305 84.2656 115.305 80.6406C115.305 77.0156 118.246 74.0781 121.867 74.0781C125.492 74.0781 128.43 77.0156 128.43 80.6406Z" fill="white"/>
<path d="M178.568 80.6406C178.568 84.2656 175.627 87.2031 172.006 87.2031C168.381 87.2031 165.443 84.2656 165.443 80.6406C165.443 77.0156 168.381 74.0781 172.006 74.0781C175.627 74.0781 178.568 77.0156 178.568 80.6406Z" fill="white"/>
<path d="M163.649 289.774H346.349C349.97 289.774 352.911 286.837 352.911 283.212C352.911 279.587 349.97 276.649 346.349 276.649H335.54V144.039C335.516 137.16 329.95 131.594 323.071 131.57H303.473C296.578 131.57 290.985 137.145 290.957 144.039V276.649H277.309V181.754C277.309 174.844 271.707 169.242 264.797 169.242H245.195C238.284 169.242 232.683 174.844 232.683 181.754V276.649H219.035V203.629C219.007 196.735 213.413 191.16 206.519 191.16H186.921C180.042 191.184 174.476 196.754 174.452 203.629V276.649H163.643C160.021 276.649 157.08 279.587 157.08 283.212C157.08 286.837 160.021 289.774 163.643 289.774H163.649ZM304.089 144.704H322.421V276.654H304.089V144.704ZM245.816 182.501H264.191V276.653H245.816V182.501ZM187.586 204.071H205.918V276.653H187.586V204.071Z" fill="white"/>
</svg>
