<svg width="544" height="544" viewBox="0 0 544 544" fill="none" xmlns="http://www.w3.org/2000/svg">
<path d="M499.5 123.25H482V0.75H62V123.25H44.5C20.375 123.25 0.75 142.875 0.75 167V447C0.75 471.125 20.375 490.75 44.5 490.75H158.25V525.75H140.75V543.25H403.25V525.75H385.75V490.75H499.5C523.625 490.75 543.25 471.125 543.25 447V167C543.25 142.875 523.625 123.25 499.5 123.25ZM79.5 88.25H464.5V342H79.5V88.25ZM464.5 18.25V70.75H79.5V18.25H464.5ZM368.25 525.75H175.75V490.75H368.25V525.75ZM499.5 473.25H44.5C30.027 473.25 18.25 461.473 18.25 447V438.25H482V420.75H18.25V167C18.25 152.527 30.027 140.75 44.5 140.75H62V359.5H482V140.75H499.5C513.973 140.75 525.75 152.527 525.75 167V420.75H499.5V438.25H525.75V447C525.75 461.473 513.973 473.25 499.5 473.25Z" fill="white"/>
<path d="M97 35.75H114.5V53.25H97V35.75Z" fill="white"/>
<path d="M132 35.75H149.5V53.25H132V35.75Z" fill="white"/>
<path d="M167 35.75H184.5V53.25H167V35.75Z" fill="white"/>
<path d="M97 324.5H263.25V105.75H97V324.5ZM114.5 123.25H245.75V307H114.5V123.25Z" fill="white"/>
<path d="M280.75 219.5H447V105.75H280.75V219.5ZM298.25 123.25H429.5V202H298.25V123.25Z" fill="white"/>
<path d="M429.5 307H447V324.5H429.5V307Z" fill="white"/>
<path d="M280.75 307H412V324.5H280.75V307Z" fill="white"/>
<path d="M280.75 272H447V289.5H280.75V272Z" fill="white"/>
<path d="M280.75 237H447V254.5H280.75V237Z" fill="white"/>
</svg>
